<svg xmlns="http://www.w3.org/2000/svg" viewBox="0 0 768.2 250.51"><defs><style>.cls-1{fill:#1807fb;}.cls-2{fill:#020d2b;}</style></defs><g id="Layer_2" data-name="Layer 2"><g id="Layer_1-2" data-name="Layer 1"><path class="cls-1" d="M244.47,87.89c-1.08-3.45-2.3-6.82-3.62-10L239.64,75,226.05,83l.84,2.16c1.26,3.2,2.36,6.45,3.27,9.67a109.2,109.2,0,0,1-15.44,92.72c-1.92,2.74-3.95,5.38-6,7.82l-.08.08-.06.08c-2.18,2.59-4.47,5.07-6.83,7.38l0,0V97.51L187.35,106,123.55,144,60,181.78l-10.23,6.07L26.34,201.77l2,2.45c2.16,2.66,4.55,5.34,7.11,8l1.5,1.53,10.9-6.48,14.91-8.86,62.31-37,61,36.25v18.21A108.52,108.52,0,0,1,125,234.41h-2.73V250.1h2.83a124.87,124.87,0,0,0,89.62-37.93c.57-.59,1.15-1.19,1.64-1.72.22-.22.43-.45.63-.67.58-.62,1.16-1.25,1.69-1.87,1.15-1.28,2.16-2.46,3.1-3.63l.06-.07,6.24-8.27a125,125,0,0,0,16.44-108ZM186,125.08v54.25L140.4,152.2Z"/><path class="cls-2" d="M29.54,178.27c-1.6-2.85-3.11-5.86-4.48-8.93A109.29,109.29,0,0,1,20,94.85a99,99,0,0,1,3.22-9.53l.07-.21c1.21-3.07,2.56-6.09,4-9A109.51,109.51,0,0,1,52.94,42.91a104.77,104.77,0,0,1,10-7.79,109.1,109.1,0,0,1,124.29,0,103.27,103.27,0,0,1,10,7.8A108.62,108.62,0,0,1,209.76,56l-12.18,7.23L92.76,125.54l-4,2.48,13.86,8.23,1.5.76,86-51.12,10.22-6.07,20.76-12.36,11.2-6.65-1.49-2.37c-1.8-2.87-3.8-5.77-6-8.63a126.58,126.58,0,0,0-34.7-31.48,124.86,124.86,0,0,0-130.25,0,122.72,122.72,0,0,0-10.45,7.16A125.22,125.22,0,0,0,9.26,77.87c-1.33,3.2-2.55,6.57-3.63,10a125.12,125.12,0,0,0,5.61,88.94c1.47,3.24,3.07,6.38,4.75,9.35l1.38,2.42,13.48-8Z"/><path class="cls-2" d="M295.14,250.1V234.93h1.43v13.95h8.12v1.22Z"/><path class="cls-2" d="M318.4,250.1V234.93h10.08v1.22h-8.65v5.48h7.81v1.23h-7.81v6h8.86v1.22Z"/><path class="cls-2" d="M341.43,250.1l6-15.17H349l5.8,15.17h-1.47l-1.75-4.76h-6.9l-1.78,4.76Zm3.75-6h5.93l-3-8Z"/><path class="cls-2" d="M369.82,243.21v6.89l-1.42,0V234.93h5.93a6.53,6.53,0,0,1,3.82.94,3.45,3.45,0,0,1,1.33,3,3.93,3.93,0,0,1-.58,2.28,4.41,4.41,0,0,1-1.88,1.43,2.34,2.34,0,0,1,1.05.68,3,3,0,0,1,.57,1,5.8,5.8,0,0,1,.24,1.2c0,.42.06.83.07,1.22,0,.58,0,1.06.08,1.44a7.48,7.48,0,0,0,.12.92,2.16,2.16,0,0,0,.18.56.89.89,0,0,0,.25.31v.12l-1.57,0a2.6,2.6,0,0,1-.33-1q-.09-.68-.15-1.41c0-.49-.06-1-.08-1.43a7.38,7.38,0,0,0-.12-1.14,2.27,2.27,0,0,0-.41-1,1.83,1.83,0,0,0-.68-.56,2.79,2.79,0,0,0-.89-.25,6.81,6.81,0,0,0-1-.07Zm4.46-1.22a5.86,5.86,0,0,0,1.49-.17,3.35,3.35,0,0,0,1.18-.53,2.6,2.6,0,0,0,.8-.94,2.92,2.92,0,0,0,.3-1.37,2.75,2.75,0,0,0-.31-1.39,2.22,2.22,0,0,0-.82-.87,3.35,3.35,0,0,0-1.17-.44,7.87,7.87,0,0,0-1.38-.13h-4.55V242Z"/><path class="cls-2" d="M395.44,236.87h0V250.1H394V234.93h1.62l8.75,13.26h0V234.93h1.43V250.1h-1.66Z"/><path class="cls-2" d="M421.27,250.1V234.93h1.43V250.1Z"/><path class="cls-2" d="M439.61,236.87h-.05V250.1h-1.43V234.93h1.62l8.75,13.26h.05V234.93H450V250.1h-1.67Z"/><path class="cls-2" d="M471.36,243.49v-1.22h6.48v7.83h-1.22v-2.59a8.08,8.08,0,0,1-.91,1.24,5.2,5.2,0,0,1-1.19.94,5.76,5.76,0,0,1-1.56.6,8.62,8.62,0,0,1-2,.22,6.84,6.84,0,0,1-2.65-.51,5.7,5.7,0,0,1-2.1-1.51,6.92,6.92,0,0,1-1.38-2.52,11.43,11.43,0,0,1-.49-3.54,11,11,0,0,1,.42-3.1,7,7,0,0,1,1.29-2.51,6.11,6.11,0,0,1,2.19-1.68,7.42,7.42,0,0,1,3.1-.61,8,8,0,0,1,2.24.3,5.67,5.67,0,0,1,1.87.89,5.29,5.29,0,0,1,1.4,1.5,6.3,6.3,0,0,1,.82,2.12H476.2a4.5,4.5,0,0,0-.64-1.52,4.31,4.31,0,0,0-1.08-1.13,5,5,0,0,0-1.41-.69,5.18,5.18,0,0,0-1.62-.25,5.8,5.8,0,0,0-2.57.53,4.81,4.81,0,0,0-1.77,1.49,6.58,6.58,0,0,0-1,2.29,12.92,12.92,0,0,0-.32,2.94,7.65,7.65,0,0,0,.37,2.41,6.11,6.11,0,0,0,1.07,2,5,5,0,0,0,4.05,1.87,6.2,6.2,0,0,0,1.26-.13,5.3,5.3,0,0,0,1.26-.46,4.62,4.62,0,0,0,2-2.06,5.41,5.41,0,0,0,.5-1.5,10.75,10.75,0,0,0,.15-1.64Z"/><path class="cls-2" d="M510.12,250.1V234.93h9.76v1.22h-8.33v5.48h7.57v1.23h-7.57v7.24Z"/><path class="cls-2" d="M532.94,242.54a10.19,10.19,0,0,1,.46-3.12,7.51,7.51,0,0,1,1.33-2.54,6.52,6.52,0,0,1,2.19-1.72,6.83,6.83,0,0,1,3-.63,7.36,7.36,0,0,1,3.1.62,6.43,6.43,0,0,1,2.23,1.71,7.39,7.39,0,0,1,1.34,2.55,10.62,10.62,0,0,1,.46,3.13,10.4,10.4,0,0,1-.46,3.09,7.55,7.55,0,0,1-1.33,2.53,6.35,6.35,0,0,1-2.21,1.71,7.68,7.68,0,0,1-6.14,0,6.26,6.26,0,0,1-2.21-1.71,7.55,7.55,0,0,1-1.33-2.53A10.73,10.73,0,0,1,532.94,242.54Zm7.07,6.74a5.25,5.25,0,0,0,2.53-.56,5,5,0,0,0,1.75-1.48,6.56,6.56,0,0,0,1-2.15,9.79,9.79,0,0,0,.32-2.55,9.5,9.5,0,0,0-.38-2.83,6.15,6.15,0,0,0-1.13-2.14,4.85,4.85,0,0,0-1.79-1.35,5.73,5.73,0,0,0-2.35-.47,5.27,5.27,0,0,0-2.52.57,5.08,5.08,0,0,0-1.74,1.51,6.33,6.33,0,0,0-1,2.16,10.09,10.09,0,0,0,0,5.12,6.28,6.28,0,0,0,1,2.15,4.87,4.87,0,0,0,1.74,1.47A5.47,5.47,0,0,0,540,249.28Z"/><path class="cls-2" d="M562.87,243.21v6.89l-1.43,0V234.93h5.93a6.54,6.54,0,0,1,3.83.94,3.47,3.47,0,0,1,1.32,3,4,4,0,0,1-.57,2.28,4.45,4.45,0,0,1-1.89,1.43,2.34,2.34,0,0,1,1.05.68,2.73,2.73,0,0,1,.57,1,4.73,4.73,0,0,1,.24,1.2c0,.42.06.83.08,1.22,0,.58,0,1.06.07,1.44s.08.68.13.92a2.16,2.16,0,0,0,.18.56.79.79,0,0,0,.25.31v.12l-1.58,0a2.77,2.77,0,0,1-.32-1q-.11-.68-.15-1.41c0-.49-.06-1-.09-1.43a9.16,9.16,0,0,0-.11-1.14,2.4,2.4,0,0,0-.41-1,1.91,1.91,0,0,0-.68-.56,2.85,2.85,0,0,0-.9-.25,6.81,6.81,0,0,0-1-.07Zm4.46-1.22a5.78,5.78,0,0,0,1.48-.17,3.4,3.4,0,0,0,1.19-.53,2.7,2.7,0,0,0,.8-.94,3,3,0,0,0,.29-1.37,2.86,2.86,0,0,0-.3-1.39,2.29,2.29,0,0,0-.82-.87,3.48,3.48,0,0,0-1.18-.44,7.69,7.69,0,0,0-1.38-.13h-4.54V242Z"/><path class="cls-2" d="M605.06,245.57a4.47,4.47,0,0,0,.45,1.72,3.47,3.47,0,0,0,1,1.15,3.74,3.74,0,0,0,1.33.64,6.1,6.1,0,0,0,1.62.2,5.35,5.35,0,0,0,1.75-.25,3.32,3.32,0,0,0,1.2-.69,2.62,2.62,0,0,0,.68-1,3.23,3.23,0,0,0,.22-1.2,2.35,2.35,0,0,0-.4-1.43,3.14,3.14,0,0,0-1-.9,6.51,6.51,0,0,0-1.47-.55l-1.71-.42c-.58-.13-1.15-.29-1.7-.47a5.34,5.34,0,0,1-1.47-.74,3.42,3.42,0,0,1-1-1.19,3.74,3.74,0,0,1-.4-1.84,3.73,3.73,0,0,1,1.29-2.83,4.89,4.89,0,0,1,1.61-.9,6.66,6.66,0,0,1,2.23-.34,6.38,6.38,0,0,1,2.24.36,4.37,4.37,0,0,1,1.59,1,4,4,0,0,1,.94,1.44,4.85,4.85,0,0,1,.32,1.75h-1.37a3.45,3.45,0,0,0-.3-1.49,2.86,2.86,0,0,0-.83-1,3.74,3.74,0,0,0-1.2-.59,5.36,5.36,0,0,0-1.39-.19,4.94,4.94,0,0,0-1.84.31,3.26,3.26,0,0,0-1.19.79,2.68,2.68,0,0,0-.61,1.07,2.63,2.63,0,0,0-.06,1.18,2,2,0,0,0,.59,1.18,3.61,3.61,0,0,0,1.13.73,7.88,7.88,0,0,0,1.49.46l1.65.38c.56.14,1.1.3,1.63.48a4.86,4.86,0,0,1,1.39.74,3.27,3.27,0,0,1,1,1.19,4.49,4.49,0,0,1-1.08,5.09,6.41,6.41,0,0,1-4.08,1.16,7.67,7.67,0,0,1-2.19-.31,4.7,4.7,0,0,1-1.74-.93,4.22,4.22,0,0,1-1.15-1.54,5.3,5.3,0,0,1-.41-2.16Z"/><path class="cls-2" d="M628.91,234.93h1.43v9a6.29,6.29,0,0,0,1,4.07,4.2,4.2,0,0,0,3.39,1.24,6,6,0,0,0,2.07-.32,3.22,3.22,0,0,0,1.37-1,4,4,0,0,0,.76-1.66,10.07,10.07,0,0,0,.23-2.34v-9h1.43v9.46a6.43,6.43,0,0,1-1.46,4.55,5.75,5.75,0,0,1-4.4,1.57,5.67,5.67,0,0,1-4.42-1.61,6.45,6.45,0,0,1-1.45-4.51Z"/><path class="cls-2" d="M666.39,239.34a4.33,4.33,0,0,0-1.65-2.76,5.39,5.39,0,0,0-3.13-.83,4.8,4.8,0,0,0-2.35.55,4.73,4.73,0,0,0-1.63,1.48,6.32,6.32,0,0,0-1,2.14,10.56,10.56,0,0,0-.31,2.56,11.42,11.42,0,0,0,.27,2.48,6.31,6.31,0,0,0,.87,2.18,4.61,4.61,0,0,0,1.64,1.55,5.09,5.09,0,0,0,2.59.59,4.75,4.75,0,0,0,1.76-.31,4.38,4.38,0,0,0,1.4-.88,4.92,4.92,0,0,0,1-1.32,6.33,6.33,0,0,0,.62-1.66H668a9.89,9.89,0,0,1-.74,2.08A6,6,0,0,1,666,248.9a5.63,5.63,0,0,1-1.92,1.17,7.3,7.3,0,0,1-2.64.44,6.37,6.37,0,0,1-3-.65,5.63,5.63,0,0,1-2-1.74,7.2,7.2,0,0,1-1.15-2.54,12.58,12.58,0,0,1-.36-3.06,11.05,11.05,0,0,1,.54-3.69,6.66,6.66,0,0,1,1.48-2.48,5.65,5.65,0,0,1,2.23-1.39,9,9,0,0,1,2.8-.43,7.07,7.07,0,0,1,2.15.31,5.3,5.3,0,0,1,1.77.91,5,5,0,0,1,1.26,1.51,6.45,6.45,0,0,1,.69,2.08Z"/><path class="cls-2" d="M693.14,239.34a4.32,4.32,0,0,0-1.64-2.76,5.45,5.45,0,0,0-3.14-.83,4.83,4.83,0,0,0-2.35.55,4.73,4.73,0,0,0-1.63,1.48,6.32,6.32,0,0,0-1,2.14,10.57,10.57,0,0,0-.3,2.56,11.41,11.41,0,0,0,.26,2.48,6.31,6.31,0,0,0,.87,2.18,4.69,4.69,0,0,0,1.64,1.55,5.09,5.09,0,0,0,2.59.59,4.84,4.84,0,0,0,1.77-.31,4.44,4.44,0,0,0,1.39-.88,4.92,4.92,0,0,0,1-1.32,6.33,6.33,0,0,0,.62-1.66h1.5a9.89,9.89,0,0,1-.74,2.08,6,6,0,0,1-1.27,1.71,5.63,5.63,0,0,1-1.92,1.17,7.24,7.24,0,0,1-2.63.44,6.41,6.41,0,0,1-3-.65,5.71,5.71,0,0,1-2-1.74,7.2,7.2,0,0,1-1.15-2.54,12.58,12.58,0,0,1-.35-3.06,11.07,11.07,0,0,1,.53-3.69,6.55,6.55,0,0,1,1.49-2.48,5.61,5.61,0,0,1,2.22-1.39,9,9,0,0,1,2.8-.43,7.18,7.18,0,0,1,2.16.31,5.35,5.35,0,0,1,1.76.91,4.9,4.9,0,0,1,1.27,1.51,6.44,6.44,0,0,1,.68,2.08Z"/><path class="cls-2" d="M709.14,250.1V234.93h10.08v1.22h-8.65v5.48h7.8v1.23h-7.8v6h8.86v1.22Z"/><path class="cls-2" d="M734.15,245.57a4.3,4.3,0,0,0,.45,1.72,3.35,3.35,0,0,0,.95,1.15,3.74,3.74,0,0,0,1.33.64,6.1,6.1,0,0,0,1.62.2,5.39,5.39,0,0,0,1.75-.25,3.32,3.32,0,0,0,1.2-.69,2.74,2.74,0,0,0,.68-1,3.23,3.23,0,0,0,.22-1.2,2.35,2.35,0,0,0-.4-1.43,3.14,3.14,0,0,0-1-.9,6.51,6.51,0,0,0-1.47-.55l-1.71-.42c-.58-.13-1.15-.29-1.7-.47a5.34,5.34,0,0,1-1.47-.74,3.42,3.42,0,0,1-1-1.19,3.74,3.74,0,0,1-.4-1.84,3.73,3.73,0,0,1,1.29-2.83,4.79,4.79,0,0,1,1.61-.9,6.62,6.62,0,0,1,2.23-.34,6.38,6.38,0,0,1,2.24.36,4.37,4.37,0,0,1,1.59,1,4,4,0,0,1,.94,1.44,4.85,4.85,0,0,1,.32,1.75H742a3.45,3.45,0,0,0-.3-1.49,2.86,2.86,0,0,0-.83-1,4,4,0,0,0-1.2-.59,5.36,5.36,0,0,0-1.39-.19,4.94,4.94,0,0,0-1.84.31,3.18,3.18,0,0,0-1.19.79,2.68,2.68,0,0,0-.61,1.07,2.63,2.63,0,0,0-.06,1.18,2,2,0,0,0,.59,1.18,3.5,3.5,0,0,0,1.13.73,7.78,7.78,0,0,0,1.48.46l1.66.38c.56.14,1.1.3,1.63.48a4.86,4.86,0,0,1,1.39.74,3.27,3.27,0,0,1,1,1.19,4.49,4.49,0,0,1-1.08,5.09,6.41,6.41,0,0,1-4.08,1.16,7.62,7.62,0,0,1-2.19-.31,4.7,4.7,0,0,1-1.74-.93,4.11,4.11,0,0,1-1.15-1.54,5.3,5.3,0,0,1-.41-2.16Z"/><path class="cls-2" d="M758.56,245.57a4.47,4.47,0,0,0,.46,1.72,3.44,3.44,0,0,0,.94,1.15,3.78,3.78,0,0,0,1.34.64,6,6,0,0,0,1.62.2,5.33,5.33,0,0,0,1.74-.25,3.32,3.32,0,0,0,1.2-.69,2.65,2.65,0,0,0,.69-1,3.45,3.45,0,0,0,.22-1.2,2.42,2.42,0,0,0-.4-1.43,3.25,3.25,0,0,0-1-.9,6.42,6.42,0,0,0-1.48-.55l-1.7-.42c-.58-.13-1.15-.29-1.7-.47a5.07,5.07,0,0,1-1.47-.74,3.56,3.56,0,0,1-1.05-1.19,3.86,3.86,0,0,1-.4-1.84,3.68,3.68,0,0,1,.33-1.52,3.82,3.82,0,0,1,1-1.31,4.7,4.7,0,0,1,1.61-.9,6.58,6.58,0,0,1,2.23-.34,6.38,6.38,0,0,1,2.24.36,4.41,4.41,0,0,1,1.58,1,4.06,4.06,0,0,1,1,1.44,4.85,4.85,0,0,1,.31,1.75h-1.36a3.31,3.31,0,0,0-.31-1.49,2.76,2.76,0,0,0-.83-1,3.74,3.74,0,0,0-1.2-.59,5.28,5.28,0,0,0-1.38-.19,4.91,4.91,0,0,0-1.84.31,3.18,3.18,0,0,0-1.19.79,2.57,2.57,0,0,0-.61,1.07,2.5,2.5,0,0,0-.07,1.18,2,2,0,0,0,.59,1.18,3.66,3.66,0,0,0,1.14.73,7.78,7.78,0,0,0,1.48.46l1.65.38c.56.14,1.11.3,1.63.48a4.92,4.92,0,0,1,1.4.74,3.37,3.37,0,0,1,1,1.19,4.06,4.06,0,0,1,.37,1.82,4,4,0,0,1-1.45,3.27,6.41,6.41,0,0,1-4.08,1.16,7.62,7.62,0,0,1-2.19-.31,4.75,4.75,0,0,1-1.75-.93,4.19,4.19,0,0,1-1.14-1.54,5.14,5.14,0,0,1-.41-2.16Z"/><path class="cls-1" d="M326.54,104.87h11.81l31.4,80.34H357.93L349.16,161h-34l-9,24.19h-11Zm-8,47.15h27.23l-13.39-37.47h-.23Z"/><path class="cls-1" d="M415.55,145.72a14.55,14.55,0,0,0-4.73-8.55q-3.6-3-9.68-3a17.86,17.86,0,0,0-8.66,1.91,15.46,15.46,0,0,0-5.57,5.06,21.25,21.25,0,0,0-3,7.26,39.6,39.6,0,0,0-.9,8.5,32.18,32.18,0,0,0,1,7.87,21,21,0,0,0,3,6.81,15.14,15.14,0,0,0,5.24,4.78,15.75,15.75,0,0,0,7.82,1.81q7.08,0,11.08-3.72T416,164h9.79q-1.59,10.8-8.05,16.71t-17.61,5.9a29.65,29.65,0,0,1-11.76-2.19,23.42,23.42,0,0,1-8.55-6.13,26.41,26.41,0,0,1-5.18-9.4,39.27,39.27,0,0,1-1.74-12,42.54,42.54,0,0,1,1.69-12.21,28.07,28.07,0,0,1,5.12-9.9,23.91,23.91,0,0,1,8.55-6.64,27.94,27.94,0,0,1,12.1-2.42,35.05,35.05,0,0,1,9.28,1.18,22.61,22.61,0,0,1,7.65,3.66,20.08,20.08,0,0,1,5.46,6.24,23.23,23.23,0,0,1,2.7,8.95Z"/><path class="cls-1" d="M488,185a13.1,13.1,0,0,1-6.86,1.57,8.11,8.11,0,0,1-5.91-2.13q-2.19-2.15-2.19-6.87a23.5,23.5,0,0,1-9.18,6.87,29.63,29.63,0,0,1-11.3,2.13,30.38,30.38,0,0,1-7.49-.9,16.7,16.7,0,0,1-6.13-2.87,13.94,13.94,0,0,1-4.11-5.06,16.88,16.88,0,0,1-1.52-7.48,17.14,17.14,0,0,1,1.69-8.1,14.75,14.75,0,0,1,4.45-5.12,20.16,20.16,0,0,1,6.3-3q3.54-1,7.26-1.68c2.62-.53,5.12-.92,7.48-1.19a41.09,41.09,0,0,0,6.24-1.12,10.43,10.43,0,0,0,4.28-2.14,5.23,5.23,0,0,0,1.58-4.11,9.55,9.55,0,0,0-1.19-5.06,8.17,8.17,0,0,0-3-2.93,12.38,12.38,0,0,0-4.17-1.34,30.83,30.83,0,0,0-4.56-.34,20.28,20.28,0,0,0-10.12,2.3q-4,2.31-4.39,8.72h-9.57a20.66,20.66,0,0,1,2.25-9.11,17.16,17.16,0,0,1,5.41-6,22.74,22.74,0,0,1,7.7-3.32,41.08,41.08,0,0,1,9.29-1,55.27,55.27,0,0,1,7.82.56,20.57,20.57,0,0,1,7,2.31,13.41,13.41,0,0,1,5.06,4.89,15.63,15.63,0,0,1,1.92,8.22V171.6a22.59,22.59,0,0,0,.39,5c.26,1,1.14,1.58,2.65,1.58a9.33,9.33,0,0,0,2.92-.57Zm-15.53-29.82a10.13,10.13,0,0,1-3.32,1.57,38.61,38.61,0,0,1-4.27,1c-1.54.27-3.15.49-4.84.68s-3.32.43-4.9.73a40,40,0,0,0-4.5,1.12,12.3,12.3,0,0,0-3.71,1.86,8.81,8.81,0,0,0-2.53,3,9.49,9.49,0,0,0-1,4.5,7.57,7.57,0,0,0,3.43,6.64,10.18,10.18,0,0,0,3.55,1.46,19,19,0,0,0,4.27.46,22.8,22.8,0,0,0,8.11-1.3,17.07,17.07,0,0,0,5.51-3.26,13,13,0,0,0,3.15-4.28,10.73,10.73,0,0,0,1-4.33Z"/><path class="cls-1" d="M548.89,185.21h-9.57v-7.87h-.22a14.33,14.33,0,0,1-7.43,7,27.79,27.79,0,0,1-11.14,2.19,26.26,26.26,0,0,1-11.76-2.47,23.91,23.91,0,0,1-8.33-6.7,29.42,29.42,0,0,1-5-9.73,39.64,39.64,0,0,1-1.69-11.7,40.4,40.4,0,0,1,1.63-11.65,28.33,28.33,0,0,1,4.95-9.62,23.62,23.62,0,0,1,8.33-6.58,26.37,26.37,0,0,1,11.64-2.42,28.87,28.87,0,0,1,4.79.45,24.66,24.66,0,0,1,5.23,1.52,22,22,0,0,1,4.89,2.81,15.42,15.42,0,0,1,3.89,4.33h.22V104.87h9.57Zm-45-28.58a29.52,29.52,0,0,0,1.07,7.94,21.53,21.53,0,0,0,3.26,6.92,15.94,15.94,0,0,0,5.62,4.83,17.1,17.1,0,0,0,8,1.81,15.83,15.83,0,0,0,13.73-6.93,21,21,0,0,0,3.09-7,34,34,0,0,0-.05-16.26,20.58,20.58,0,0,0-3.21-7,16.39,16.39,0,0,0-5.68-4.9,17.86,17.86,0,0,0-8.44-1.85,16.4,16.4,0,0,0-8.27,1.91,15.37,15.37,0,0,0-5.35,5.06,22,22,0,0,0-2.92,7.21A38.22,38.22,0,0,0,503.88,156.63Z"/><path class="cls-1" d="M613.25,166.76q-1.92,9.8-8.44,14.8t-16.43,5a29.42,29.42,0,0,1-12.1-2.3,24.42,24.42,0,0,1-8.6-6.36,26.76,26.76,0,0,1-5.24-9.68,46.33,46.33,0,0,1-2-12.26,35.16,35.16,0,0,1,2-12.1,29.08,29.08,0,0,1,5.68-9.62,25.81,25.81,0,0,1,8.67-6.3,26.41,26.41,0,0,1,11-2.25q7.75,0,12.88,3.21a25.41,25.41,0,0,1,8.22,8.15,32.18,32.18,0,0,1,4.27,10.81,46.19,46.19,0,0,1,1,11.14H570.6a23.31,23.31,0,0,0,.9,7.25,16.5,16.5,0,0,0,3.27,6.08,16.09,16.09,0,0,0,5.74,4.22,19.78,19.78,0,0,0,8.21,1.58,16.54,16.54,0,0,0,10-2.82q3.89-2.81,5.12-8.55ZM604,150.56a19.7,19.7,0,0,0-1.52-6.42,16.39,16.39,0,0,0-3.48-5.23,16.65,16.65,0,0,0-5.18-3.49,16.4,16.4,0,0,0-6.58-1.29,16.71,16.71,0,0,0-6.7,1.29,15.37,15.37,0,0,0-5.12,3.55,16.9,16.9,0,0,0-3.37,5.23,19.83,19.83,0,0,0-1.47,6.36Z"/><path class="cls-1" d="M624.05,127h9v8.55h.23q6.53-9.9,18.79-9.9a21.16,21.16,0,0,1,9.79,2.25,12.59,12.59,0,0,1,6.19,7.65,20.25,20.25,0,0,1,7.71-7.31,21.66,21.66,0,0,1,10.52-2.59,30.79,30.79,0,0,1,7.93,1,16.56,16.56,0,0,1,6.08,3,13.5,13.5,0,0,1,3.94,5.23,19.27,19.27,0,0,1,1.4,7.71v42.64h-9.56V147.07a27.17,27.17,0,0,0-.45-5.07,10.4,10.4,0,0,0-1.69-4.1,8.38,8.38,0,0,0-3.43-2.76,13.72,13.72,0,0,0-5.68-1q-7.1,0-11.14,4.05T669.62,149v36.23h-9.56V147.07a24.59,24.59,0,0,0-.51-5.18,11,11,0,0,0-1.74-4.11,8.13,8.13,0,0,0-3.38-2.7,13.07,13.07,0,0,0-5.29-1,14.26,14.26,0,0,0-7.2,1.68,16.47,16.47,0,0,0-4.78,4.06,16,16,0,0,0-2.7,4.89,14,14,0,0,0-.84,4.22v36.23h-9.57Z"/><path class="cls-1" d="M742.88,193a61.21,61.21,0,0,1-3.32,7.2A19.85,19.85,0,0,1,736,205a12.24,12.24,0,0,1-4.39,2.7,16.68,16.68,0,0,1-5.57.85,25.59,25.59,0,0,1-3.38-.23,15.67,15.67,0,0,1-3.26-.79v-8.77l2.76.9a9.31,9.31,0,0,0,2.87.45,7.66,7.66,0,0,0,4.72-1.35,11.45,11.45,0,0,0,3.15-3.94l3.94-9.9L713.73,127h10.81l17,47.6h.22L758.07,127H768.2Z"/><path class="cls-2" d="M314.39,18.8v8.87A1.59,1.59,0,0,0,316,29.26h34.64a1.58,1.58,0,0,1,1.58,1.58V44.89a1.58,1.58,0,0,1-1.58,1.58H316a1.59,1.59,0,0,0-1.58,1.59V58.5A1.59,1.59,0,0,0,316,60.09h38.46A1.59,1.59,0,0,1,356,61.68v14a1.59,1.59,0,0,1-1.59,1.59H312.64a17.51,17.51,0,0,1-17.5-17.5V12.05A12.05,12.05,0,0,1,307.19,0h47.24A1.59,1.59,0,0,1,356,1.59v14a1.59,1.59,0,0,1-1.59,1.59H316A1.58,1.58,0,0,0,314.39,18.8Z"/><path class="cls-2" d="M362.46,2.65a1.06,1.06,0,0,1,1-1.1h7.64A8.36,8.36,0,0,1,377,3.86a7.54,7.54,0,0,1,2.42,5.77V75.72a1,1,0,0,1-1.05,1H363.5a1,1,0,0,1-1-1Z"/><path class="cls-2" d="M437.3,75.22a1.06,1.06,0,0,1-1.1,1H421.53a1,1,0,0,1-1-1V39.07q0-4.62-2.64-6.6a10.59,10.59,0,0,0-6.26-2.08,10,10,0,0,0-6.16,2.08c-1.7,1.38-2.58,3.58-2.58,6.6V75.22a1,1,0,0,1-1,1H386.92a1,1,0,0,1-1.05-1V42c0-10,2.7-16.75,8-20.21a33.35,33.35,0,0,1,17.19-5.44c6.54,0,12.86,1,18.13,4.94,4.45-3.68,10.17-4.72,16.49-4.94a33.49,33.49,0,0,1,17.8,5c5.6,3.46,8.4,10.32,8.4,20.65V75.22a1.05,1.05,0,0,1-1.1,1H463.4A7.93,7.93,0,0,1,455.1,68V39.07q0-4.62-2.64-6.6a10.46,10.46,0,0,0-12.52,0q-2.64,2-2.64,6.6Z"/><path class="cls-2" d="M507.43,76.81q-5,.5-8.9.5a23.2,23.2,0,0,1-14-4.34c-4.12-3-6.16-7.81-6.16-14.56,0-6.32,1.87-10.83,5.61-13.57a31.71,31.71,0,0,1,13.73-5.33,15.48,15.48,0,0,0,2.75-.39c.93-.16,2-.27,3.24-.44,5.33-.82,8.41-2.36,8.41-4.5a3,3,0,0,0-2.53-3.13,19.92,19.92,0,0,0-5.71-.88c-3.69,0-6.54.71-7.81,3.4a1,1,0,0,1-.93.61H480.89a1,1,0,0,1-1-1.21,17.68,17.68,0,0,1,6.32-11.48c3.95-3.3,9.72-5.11,17-5.11,8.13,0,14.28,1.42,18.4,4.23a14.48,14.48,0,0,1,6.65,12.74V52.69c0,5.94-1.1,10.55-3.24,13.85a19.92,19.92,0,0,1-7.75,7.3A27.69,27.69,0,0,1,507.43,76.81Zm4.89-28.4a35.51,35.51,0,0,1-7,2.14c-1.7.38-2.86.6-3.68.77l-1.21.27h.06a11.21,11.21,0,0,0-4.89,2.31A7.56,7.56,0,0,0,494.3,58a5.65,5.65,0,0,0,1.53,4.34,7.21,7.21,0,0,0,4.84,1.43c3.68,0,6.54-1.05,8.57-3.08s3.08-4.95,3.08-8.63Z"/><path class="cls-2" d="M534.67,56.48a1,1,0,0,1,1.05-1h14.45a1.13,1.13,0,0,1,1.1,1A6.78,6.78,0,0,0,554,62l0-.05a14,14,0,0,0,7.91,2,12.2,12.2,0,0,0,6-1.38v.06a3.59,3.59,0,0,0,2-3.14c0-1.92-2.7-3.51-8.08-4.72h0a32.13,32.13,0,0,1-5.87-1.32c-7.48-1.92-12.7-4.17-15.5-6.76a15.26,15.26,0,0,1-4.61-11,18,18,0,0,1,6.54-14.17c4.5-3.41,10.27-5.11,17.25-5.11,7.52,0,13.62,1.64,18.24,5a19.77,19.77,0,0,1,7,14.67,1,1,0,0,1-1,1.15h-9.12a7.91,7.91,0,0,1-7-4.07l-1.59-1.59A11.16,11.16,0,0,0,560,30a12.24,12.24,0,0,0-5.83,1.1h.06a3.26,3.26,0,0,0-1.43,3c0,1.71,3.41,3.24,10.16,4.67a11.43,11.43,0,0,0,3.9.83c7.53,1.92,12.8,4.17,15.72,6.64,2.91,2.7,4.39,6.38,4.39,11,0,6.6-2.42,11.7-7.19,15.28-4.46,3.24-11.05,4.89-19.78,4.89-8.35,0-14.62-1.71-18.74-5.06h.06c-4.4-3.52-6.6-8.57-6.6-15.11Z"/></g></g></svg>