<svg xmlns="http://www.w3.org/2000/svg" viewBox="0 0 768.2 250.1"><defs><style>.cls-1{fill:#1807fb;}.cls-2{fill:#020d2b;}</style></defs><g id="Layer_2" data-name="Layer 2"><g id="Layer_1-2" data-name="Layer 1"><path class="cls-1" d="M244.47,87.89c-1.08-3.45-2.3-6.82-3.62-10L239.64,75,226.05,83l.84,2.16c1.26,3.2,2.36,6.45,3.27,9.67a109.2,109.2,0,0,1-15.44,92.72c-1.92,2.74-3.95,5.38-6,7.82l-.08.08-.06.08c-2.18,2.59-4.47,5.07-6.83,7.38l0,0V97.51L187.35,106,123.55,144,60,181.78l-10.23,6.07L26.34,201.77l2,2.45c2.16,2.66,4.55,5.34,7.11,8l1.5,1.53,10.9-6.48,14.91-8.86,62.31-37,61,36.25v18.21A108.52,108.52,0,0,1,125,234.41h-2.73V250.1h2.83a124.87,124.87,0,0,0,89.62-37.93c.57-.59,1.15-1.19,1.64-1.72.22-.22.43-.45.63-.67.58-.62,1.16-1.25,1.69-1.87,1.15-1.28,2.16-2.46,3.1-3.63l.06-.07,6.24-8.27a125,125,0,0,0,16.44-108ZM186,125.08v54.25L140.4,152.2Z"/><path class="cls-2" d="M29.54,178.27c-1.6-2.85-3.11-5.86-4.48-8.93A109.29,109.29,0,0,1,20,94.85a99,99,0,0,1,3.22-9.53l.07-.21c1.21-3.07,2.56-6.09,4-9A109.51,109.51,0,0,1,52.94,42.91a104.77,104.77,0,0,1,10-7.79,109.1,109.1,0,0,1,124.29,0,103.27,103.27,0,0,1,10,7.8A108.62,108.62,0,0,1,209.76,56l-12.18,7.23L92.76,125.54l-4,2.48,13.86,8.23,1.5.76,86-51.12,10.22-6.07,20.76-12.36,11.2-6.65-1.49-2.37c-1.8-2.87-3.8-5.77-6-8.63a126.58,126.58,0,0,0-34.7-31.48,124.86,124.86,0,0,0-130.25,0,122.72,122.72,0,0,0-10.45,7.16A125.22,125.22,0,0,0,9.26,77.87c-1.33,3.2-2.55,6.57-3.63,10a125.12,125.12,0,0,0,5.61,88.94c1.47,3.24,3.07,6.38,4.75,9.35l1.38,2.42,13.48-8Z"/><path class="cls-1" d="M326.54,125.67h11.81L369.75,206H357.93l-8.77-24.19h-34l-9,24.19h-11Zm-8,47.15h27.23l-13.39-37.47h-.23Z"/><path class="cls-1" d="M415.55,166.52a14.61,14.61,0,0,0-4.73-8.56q-3.6-3-9.68-3a17.75,17.75,0,0,0-8.66,1.91,15.46,15.46,0,0,0-5.57,5.06,21.25,21.25,0,0,0-3,7.26,39.6,39.6,0,0,0-.9,8.5,32.18,32.18,0,0,0,1,7.87,21.2,21.2,0,0,0,3,6.81,15.23,15.23,0,0,0,5.24,4.78,15.75,15.75,0,0,0,7.82,1.8q7.08,0,11.08-3.71t4.9-10.46h9.79q-1.59,10.8-8.05,16.71t-17.61,5.9a29.65,29.65,0,0,1-11.76-2.19,23.42,23.42,0,0,1-8.55-6.13,26.41,26.41,0,0,1-5.18-9.4,39.27,39.27,0,0,1-1.74-12,42.54,42.54,0,0,1,1.69-12.21,28.2,28.2,0,0,1,5.12-9.91,24,24,0,0,1,8.55-6.63,27.94,27.94,0,0,1,12.1-2.42,35.05,35.05,0,0,1,9.28,1.18,22.78,22.78,0,0,1,7.65,3.65,20.23,20.23,0,0,1,5.46,6.25,23.17,23.17,0,0,1,2.7,9Z"/><path class="cls-1" d="M488,205.79a13.1,13.1,0,0,1-6.86,1.57,8.11,8.11,0,0,1-5.91-2.13q-2.19-2.14-2.19-6.87a23.5,23.5,0,0,1-9.18,6.87,29.63,29.63,0,0,1-11.3,2.13,30.38,30.38,0,0,1-7.49-.9,16.7,16.7,0,0,1-6.13-2.87,14,14,0,0,1-4.11-5.06,16.88,16.88,0,0,1-1.52-7.48A17.14,17.14,0,0,1,435,183a14.87,14.87,0,0,1,4.45-5.13,20.37,20.37,0,0,1,6.3-3q3.54-1,7.26-1.68c2.62-.53,5.12-.92,7.48-1.19a41.09,41.09,0,0,0,6.24-1.12,10.43,10.43,0,0,0,4.28-2.14,5.23,5.23,0,0,0,1.58-4.11,9.52,9.52,0,0,0-1.19-5.06,8.1,8.1,0,0,0-3-2.93,12.62,12.62,0,0,0-4.17-1.35,32.21,32.21,0,0,0-4.56-.33,20.28,20.28,0,0,0-10.12,2.3q-4,2.31-4.39,8.72h-9.57a20.63,20.63,0,0,1,2.25-9.11,17.16,17.16,0,0,1,5.41-6,22.54,22.54,0,0,1,7.7-3.32,40.52,40.52,0,0,1,9.29-1,53.82,53.82,0,0,1,7.82.56,20.36,20.36,0,0,1,7,2.31,13.41,13.41,0,0,1,5.06,4.89,15.63,15.63,0,0,1,1.92,8.22V192.4a22.59,22.59,0,0,0,.39,4.95c.26,1.05,1.14,1.57,2.65,1.57a9.29,9.29,0,0,0,2.92-.56ZM472.48,176a10.13,10.13,0,0,1-3.32,1.57,38.61,38.61,0,0,1-4.27,1c-1.54.26-3.15.49-4.84.68s-3.32.43-4.9.73a40,40,0,0,0-4.5,1.12,12.3,12.3,0,0,0-3.71,1.86,8.81,8.81,0,0,0-2.53,3,9.49,9.49,0,0,0-1,4.5,7.57,7.57,0,0,0,3.43,6.64,10.38,10.38,0,0,0,3.55,1.46,19.62,19.62,0,0,0,4.27.45,22.81,22.81,0,0,0,8.11-1.29,17.07,17.07,0,0,0,5.51-3.26,13.08,13.08,0,0,0,3.15-4.28,10.73,10.73,0,0,0,1-4.33Z"/><path class="cls-1" d="M548.89,206h-9.57v-7.87h-.22a14.33,14.33,0,0,1-7.43,7,27.79,27.79,0,0,1-11.14,2.19,26.26,26.26,0,0,1-11.76-2.47,24,24,0,0,1-8.33-6.7,29.42,29.42,0,0,1-5-9.73,39.64,39.64,0,0,1-1.69-11.7,40.4,40.4,0,0,1,1.63-11.65,28.24,28.24,0,0,1,4.95-9.62,23.51,23.51,0,0,1,8.33-6.58,26.37,26.37,0,0,1,11.64-2.42,28.87,28.87,0,0,1,4.79.45,24.09,24.09,0,0,1,5.23,1.52,22,22,0,0,1,4.89,2.81,15.42,15.42,0,0,1,3.89,4.33h.22V125.67h9.57Zm-45-28.58a29.39,29.39,0,0,0,1.07,7.93,21.33,21.33,0,0,0,3.26,6.92,16,16,0,0,0,5.62,4.84,17.1,17.1,0,0,0,8,1.8A15.79,15.79,0,0,0,535.61,192a21,21,0,0,0,3.09-7,34,34,0,0,0-.05-16.26,20.58,20.58,0,0,0-3.21-7,16.39,16.39,0,0,0-5.68-4.9,17.74,17.74,0,0,0-8.44-1.85,16.3,16.3,0,0,0-8.27,1.91,15.37,15.37,0,0,0-5.35,5.06,22,22,0,0,0-2.92,7.2A38.31,38.31,0,0,0,503.88,177.43Z"/><path class="cls-1" d="M613.25,187.56q-1.92,9.8-8.44,14.8t-16.43,5a29.42,29.42,0,0,1-12.1-2.3,24.42,24.42,0,0,1-8.6-6.36,26.84,26.84,0,0,1-5.24-9.68,46.33,46.33,0,0,1-2-12.26,35.16,35.16,0,0,1,2-12.1,29.08,29.08,0,0,1,5.68-9.62,25.81,25.81,0,0,1,8.67-6.3,26.41,26.41,0,0,1,11-2.25q7.75,0,12.88,3.2a25.53,25.53,0,0,1,8.22,8.16,32.13,32.13,0,0,1,4.27,10.8,46.27,46.27,0,0,1,1,11.14H570.6a23.38,23.38,0,0,0,.9,7.26,16.5,16.5,0,0,0,3.27,6.08,16.09,16.09,0,0,0,5.74,4.22,19.78,19.78,0,0,0,8.21,1.57,16.53,16.53,0,0,0,10-2.81c2.59-1.87,4.29-4.73,5.12-8.55ZM604,171.36a19.64,19.64,0,0,0-1.52-6.42,16.39,16.39,0,0,0-3.48-5.23,16.65,16.65,0,0,0-5.18-3.49,16.4,16.4,0,0,0-6.58-1.29,16.71,16.71,0,0,0-6.7,1.29,15.34,15.34,0,0,0-5.12,3.54,17.07,17.07,0,0,0-3.37,5.24,19.77,19.77,0,0,0-1.47,6.36Z"/><path class="cls-1" d="M624.05,147.84h9v8.55h.23q6.53-9.9,18.79-9.9a21.16,21.16,0,0,1,9.79,2.25,12.59,12.59,0,0,1,6.19,7.65,20.35,20.35,0,0,1,7.71-7.32,21.76,21.76,0,0,1,10.52-2.58,30.79,30.79,0,0,1,7.93.95,16.41,16.41,0,0,1,6.08,3,13.43,13.43,0,0,1,3.94,5.23,19.26,19.26,0,0,1,1.4,7.7V206h-9.56V167.87a27.17,27.17,0,0,0-.45-5.07,10.4,10.4,0,0,0-1.69-4.1,8.38,8.38,0,0,0-3.43-2.76,13.56,13.56,0,0,0-5.68-1q-7.1,0-11.14,4t-4.06,10.8V206h-9.56V167.87a24.59,24.59,0,0,0-.51-5.18,11,11,0,0,0-1.74-4.11,8.13,8.13,0,0,0-3.38-2.7,13.07,13.07,0,0,0-5.29-.95,14.26,14.26,0,0,0-7.2,1.68,16.6,16.6,0,0,0-4.78,4,16.19,16.19,0,0,0-2.7,4.9,13.93,13.93,0,0,0-.84,4.22V206h-9.57Z"/><path class="cls-1" d="M742.88,213.78a61.21,61.21,0,0,1-3.32,7.2,19.85,19.85,0,0,1-3.6,4.78,12.24,12.24,0,0,1-4.39,2.7,16.93,16.93,0,0,1-5.57.85,25.59,25.59,0,0,1-3.38-.23,15.67,15.67,0,0,1-3.26-.79v-8.77l2.76.9a9.31,9.31,0,0,0,2.87.45,7.66,7.66,0,0,0,4.72-1.35,11.45,11.45,0,0,0,3.15-3.94l3.94-9.9-23.07-57.84h10.81l17,47.59h.22l16.32-47.59H768.2Z"/><path class="cls-2" d="M314.39,39.6v8.87A1.59,1.59,0,0,0,316,50.06h34.64a1.58,1.58,0,0,1,1.58,1.58v14a1.59,1.59,0,0,1-1.58,1.59H316a1.59,1.59,0,0,0-1.58,1.59V79.3A1.59,1.59,0,0,0,316,80.89h38.46A1.59,1.59,0,0,1,356,82.48v14a1.59,1.59,0,0,1-1.59,1.58H312.64a17.5,17.5,0,0,1-17.5-17.49V32.85a12.05,12.05,0,0,1,12.05-12h47.24A1.59,1.59,0,0,1,356,22.39v14A1.59,1.59,0,0,1,354.43,38H316A1.58,1.58,0,0,0,314.39,39.6Z"/><path class="cls-2" d="M362.46,23.45a1.05,1.05,0,0,1,1-1.1h7.64A8.36,8.36,0,0,1,377,24.66a7.54,7.54,0,0,1,2.42,5.77V96.52a1,1,0,0,1-1.05,1H363.5a1,1,0,0,1-1-1Z"/><path class="cls-2" d="M437.3,96a1.06,1.06,0,0,1-1.1,1H421.53a1,1,0,0,1-1-1V59.87q0-4.62-2.64-6.6a10.6,10.6,0,0,0-6.26-2.09,10,10,0,0,0-6.16,2.09c-1.7,1.38-2.58,3.57-2.58,6.6V96a1,1,0,0,1-1,1H386.92a1,1,0,0,1-1.05-1V62.83c0-10,2.7-16.75,8-20.22a33.34,33.34,0,0,1,17.19-5.43c6.54,0,12.86,1,18.13,4.94,4.45-3.68,10.17-4.73,16.49-4.94a33.49,33.49,0,0,1,17.8,5c5.6,3.46,8.4,10.32,8.4,20.65V96a1.05,1.05,0,0,1-1.1,1H463.4a7.94,7.94,0,0,1-8.3-8.3V59.87q0-4.62-2.64-6.6a10.42,10.42,0,0,0-12.52,0q-2.64,2-2.64,6.6Z"/><path class="cls-2" d="M507.43,97.61q-5,.49-8.9.49a23.14,23.14,0,0,1-14-4.34c-4.12-3-6.16-7.8-6.16-14.56,0-6.31,1.87-10.82,5.61-13.57a31.83,31.83,0,0,1,13.73-5.32,15.48,15.48,0,0,0,2.75-.39c.93-.16,2-.27,3.24-.44,5.33-.82,8.41-2.36,8.41-4.5a3.07,3.07,0,0,0-2.53-3.14,20.24,20.24,0,0,0-5.71-.87c-3.69,0-6.54.71-7.81,3.4a1,1,0,0,1-.93.61H480.89a1,1,0,0,1-1-1.21,17.72,17.72,0,0,1,6.32-11.49c3.95-3.29,9.72-5.1,17-5.1,8.13,0,14.28,1.42,18.4,4.23a14.48,14.48,0,0,1,6.65,12.74V73.49c0,5.93-1.1,10.55-3.24,13.85a19.92,19.92,0,0,1-7.75,7.3A27.69,27.69,0,0,1,507.43,97.61Zm4.89-28.4a36.2,36.2,0,0,1-7,2.14c-1.7.38-2.86.6-3.68.77l-1.21.27h.06a11.21,11.21,0,0,0-4.89,2.31,7.56,7.56,0,0,0-1.32,4.07,5.65,5.65,0,0,0,1.53,4.34,7.21,7.21,0,0,0,4.84,1.42c3.68,0,6.54-1,8.57-3.07s3.08-4.95,3.08-8.63Z"/><path class="cls-2" d="M534.67,77.28a1,1,0,0,1,1.05-1h14.45a1.13,1.13,0,0,1,1.1,1,6.8,6.8,0,0,0,2.74,5.6l0,0a14.12,14.12,0,0,0,7.91,2,12.31,12.31,0,0,0,6-1.37v.05a3.57,3.57,0,0,0,2-3.13c0-1.92-2.7-3.51-8.08-4.72h0a33.91,33.91,0,0,1-5.87-1.32c-7.48-1.92-12.7-4.18-15.5-6.76a15.26,15.26,0,0,1-4.61-11,18.07,18.07,0,0,1,6.54-14.18c4.5-3.4,10.27-5.1,17.25-5.1,7.52,0,13.62,1.64,18.24,5a19.77,19.77,0,0,1,7,14.66A1,1,0,0,1,584,58h-9.12a7.93,7.93,0,0,1-7-4.07l-1.59-1.59A11.08,11.08,0,0,0,560,50.75a12.38,12.38,0,0,0-5.83,1.09h.06a3.29,3.29,0,0,0-1.43,3c0,1.7,3.41,3.24,10.16,4.67a11.43,11.43,0,0,0,3.9.83c7.53,1.92,12.8,4.17,15.72,6.64,2.91,2.7,4.39,6.38,4.39,11,0,6.59-2.42,11.7-7.19,15.28Q573,98.08,560,98.1c-8.35,0-14.62-1.7-18.74-5h.06c-4.4-3.52-6.6-8.57-6.6-15.11Z"/></g></g></svg>